<mxfile host="Electron" agent="Mozilla/5.0 (Windows NT 10.0; Win64; x64) AppleWebKit/537.36 (KHTML, like Gecko) draw.io/24.7.8 Chrome/128.0.6613.36 Electron/32.0.1 Safari/537.36" version="24.7.8">
  <diagram name="Page-1" id="Mlja6Rq_95ngezL6w7BH">
    <mxGraphModel dx="478" dy="279" grid="1" gridSize="10" guides="1" tooltips="1" connect="1" arrows="1" fold="1" page="1" pageScale="1" pageWidth="850" pageHeight="1100" math="0" shadow="0">
      <root>
        <mxCell id="0" />
        <mxCell id="1" parent="0" />
        <mxCell id="GYXTQcO4I69pth3NpqbF-3" value="x.L1" style="text;html=1;align=center;verticalAlign=middle;whiteSpace=wrap;rounded=0;" vertex="1" parent="1">
          <mxGeometry x="130" y="135" width="60" height="30" as="geometry" />
        </mxCell>
        <mxCell id="GYXTQcO4I69pth3NpqbF-4" value="x.L3" style="text;html=1;align=center;verticalAlign=middle;whiteSpace=wrap;rounded=0;" vertex="1" parent="1">
          <mxGeometry x="130" y="176" width="60" height="30" as="geometry" />
        </mxCell>
        <mxCell id="GYXTQcO4I69pth3NpqbF-142" style="edgeStyle=orthogonalEdgeStyle;rounded=0;orthogonalLoop=1;jettySize=auto;html=1;entryX=0.5;entryY=0;entryDx=0;entryDy=0;" edge="1" parent="1" source="GYXTQcO4I69pth3NpqbF-18" target="GYXTQcO4I69pth3NpqbF-141">
          <mxGeometry relative="1" as="geometry" />
        </mxCell>
        <mxCell id="GYXTQcO4I69pth3NpqbF-18" value="+" style="ellipse;whiteSpace=wrap;html=1;aspect=fixed;" vertex="1" parent="1">
          <mxGeometry x="220" y="160" width="20" height="20" as="geometry" />
        </mxCell>
        <mxCell id="GYXTQcO4I69pth3NpqbF-74" value="" style="endArrow=none;html=1;rounded=0;" edge="1" parent="1">
          <mxGeometry width="50" height="50" relative="1" as="geometry">
            <mxPoint x="180" y="190" as="sourcePoint" />
            <mxPoint x="230" y="190" as="targetPoint" />
          </mxGeometry>
        </mxCell>
        <mxCell id="GYXTQcO4I69pth3NpqbF-65" value="" style="endArrow=none;html=1;rounded=0;" edge="1" parent="1">
          <mxGeometry width="50" height="50" relative="1" as="geometry">
            <mxPoint x="180" y="150" as="sourcePoint" />
            <mxPoint x="230" y="150.2" as="targetPoint" />
          </mxGeometry>
        </mxCell>
        <mxCell id="GYXTQcO4I69pth3NpqbF-66" value="" style="endArrow=classic;html=1;rounded=0;horizontal=1;fontSize=5;fontFamily=Georgia;endSize=2;entryX=0.5;entryY=0;entryDx=0;entryDy=0;" edge="1" parent="1" target="GYXTQcO4I69pth3NpqbF-18">
          <mxGeometry width="50" height="50" relative="1" as="geometry">
            <mxPoint x="230" y="150" as="sourcePoint" />
            <mxPoint x="229.9" y="153" as="targetPoint" />
          </mxGeometry>
        </mxCell>
        <mxCell id="GYXTQcO4I69pth3NpqbF-91" value="" style="endArrow=classic;html=1;rounded=0;entryX=0.5;entryY=1;entryDx=0;entryDy=0;endSize=2;" edge="1" parent="1" target="GYXTQcO4I69pth3NpqbF-18">
          <mxGeometry width="50" height="50" relative="1" as="geometry">
            <mxPoint x="230" y="190" as="sourcePoint" />
            <mxPoint x="290" y="180" as="targetPoint" />
          </mxGeometry>
        </mxCell>
        <mxCell id="GYXTQcO4I69pth3NpqbF-92" value="x.L8" style="text;html=1;align=center;verticalAlign=middle;whiteSpace=wrap;rounded=0;" vertex="1" parent="1">
          <mxGeometry x="130" y="206" width="60" height="30" as="geometry" />
        </mxCell>
        <mxCell id="GYXTQcO4I69pth3NpqbF-93" value="x.L9" style="text;html=1;align=center;verticalAlign=middle;whiteSpace=wrap;rounded=0;" vertex="1" parent="1">
          <mxGeometry x="130" y="247" width="60" height="30" as="geometry" />
        </mxCell>
        <mxCell id="GYXTQcO4I69pth3NpqbF-143" style="edgeStyle=orthogonalEdgeStyle;rounded=0;orthogonalLoop=1;jettySize=auto;html=1;entryX=0.5;entryY=1;entryDx=0;entryDy=0;" edge="1" parent="1" source="GYXTQcO4I69pth3NpqbF-94" target="GYXTQcO4I69pth3NpqbF-141">
          <mxGeometry relative="1" as="geometry" />
        </mxCell>
        <mxCell id="GYXTQcO4I69pth3NpqbF-94" value="+" style="ellipse;whiteSpace=wrap;html=1;aspect=fixed;" vertex="1" parent="1">
          <mxGeometry x="220" y="231" width="20" height="20" as="geometry" />
        </mxCell>
        <mxCell id="GYXTQcO4I69pth3NpqbF-95" value="" style="endArrow=none;html=1;rounded=0;" edge="1" parent="1">
          <mxGeometry width="50" height="50" relative="1" as="geometry">
            <mxPoint x="180" y="261" as="sourcePoint" />
            <mxPoint x="230" y="261" as="targetPoint" />
          </mxGeometry>
        </mxCell>
        <mxCell id="GYXTQcO4I69pth3NpqbF-96" value="" style="endArrow=none;html=1;rounded=0;" edge="1" parent="1">
          <mxGeometry width="50" height="50" relative="1" as="geometry">
            <mxPoint x="180" y="221" as="sourcePoint" />
            <mxPoint x="230" y="221.2" as="targetPoint" />
          </mxGeometry>
        </mxCell>
        <mxCell id="GYXTQcO4I69pth3NpqbF-97" value="" style="endArrow=classic;html=1;rounded=0;horizontal=1;fontSize=5;fontFamily=Georgia;endSize=2;entryX=0.5;entryY=0;entryDx=0;entryDy=0;" edge="1" parent="1" target="GYXTQcO4I69pth3NpqbF-94">
          <mxGeometry width="50" height="50" relative="1" as="geometry">
            <mxPoint x="230" y="221" as="sourcePoint" />
            <mxPoint x="229.9" y="224" as="targetPoint" />
          </mxGeometry>
        </mxCell>
        <mxCell id="GYXTQcO4I69pth3NpqbF-98" value="" style="endArrow=classic;html=1;rounded=0;entryX=0.5;entryY=1;entryDx=0;entryDy=0;endSize=2;" edge="1" parent="1" target="GYXTQcO4I69pth3NpqbF-94">
          <mxGeometry width="50" height="50" relative="1" as="geometry">
            <mxPoint x="230" y="261" as="sourcePoint" />
            <mxPoint x="290" y="251" as="targetPoint" />
          </mxGeometry>
        </mxCell>
        <mxCell id="GYXTQcO4I69pth3NpqbF-105" value="x.L10" style="text;html=1;align=center;verticalAlign=middle;whiteSpace=wrap;rounded=0;" vertex="1" parent="1">
          <mxGeometry x="130" y="280" width="60" height="30" as="geometry" />
        </mxCell>
        <mxCell id="GYXTQcO4I69pth3NpqbF-106" value="x.L16" style="text;html=1;align=center;verticalAlign=middle;whiteSpace=wrap;rounded=0;" vertex="1" parent="1">
          <mxGeometry x="130" y="321" width="60" height="30" as="geometry" />
        </mxCell>
        <mxCell id="GYXTQcO4I69pth3NpqbF-146" style="edgeStyle=orthogonalEdgeStyle;rounded=0;orthogonalLoop=1;jettySize=auto;html=1;entryX=0.5;entryY=0;entryDx=0;entryDy=0;" edge="1" parent="1" source="GYXTQcO4I69pth3NpqbF-107" target="GYXTQcO4I69pth3NpqbF-144">
          <mxGeometry relative="1" as="geometry" />
        </mxCell>
        <mxCell id="GYXTQcO4I69pth3NpqbF-107" value="+" style="ellipse;whiteSpace=wrap;html=1;aspect=fixed;" vertex="1" parent="1">
          <mxGeometry x="220" y="305" width="20" height="20" as="geometry" />
        </mxCell>
        <mxCell id="GYXTQcO4I69pth3NpqbF-108" value="" style="endArrow=none;html=1;rounded=0;" edge="1" parent="1">
          <mxGeometry width="50" height="50" relative="1" as="geometry">
            <mxPoint x="180" y="335" as="sourcePoint" />
            <mxPoint x="230" y="335" as="targetPoint" />
          </mxGeometry>
        </mxCell>
        <mxCell id="GYXTQcO4I69pth3NpqbF-109" value="" style="endArrow=none;html=1;rounded=0;" edge="1" parent="1">
          <mxGeometry width="50" height="50" relative="1" as="geometry">
            <mxPoint x="180" y="295" as="sourcePoint" />
            <mxPoint x="230" y="295.2" as="targetPoint" />
          </mxGeometry>
        </mxCell>
        <mxCell id="GYXTQcO4I69pth3NpqbF-110" value="" style="endArrow=classic;html=1;rounded=0;horizontal=1;fontSize=5;fontFamily=Georgia;endSize=2;entryX=0.5;entryY=0;entryDx=0;entryDy=0;" edge="1" parent="1" target="GYXTQcO4I69pth3NpqbF-107">
          <mxGeometry width="50" height="50" relative="1" as="geometry">
            <mxPoint x="230" y="295" as="sourcePoint" />
            <mxPoint x="229.9" y="298" as="targetPoint" />
          </mxGeometry>
        </mxCell>
        <mxCell id="GYXTQcO4I69pth3NpqbF-111" value="" style="endArrow=classic;html=1;rounded=0;entryX=0.5;entryY=1;entryDx=0;entryDy=0;endSize=2;" edge="1" parent="1" target="GYXTQcO4I69pth3NpqbF-107">
          <mxGeometry width="50" height="50" relative="1" as="geometry">
            <mxPoint x="230" y="335" as="sourcePoint" />
            <mxPoint x="290" y="325" as="targetPoint" />
          </mxGeometry>
        </mxCell>
        <mxCell id="GYXTQcO4I69pth3NpqbF-112" value="x.L17" style="text;html=1;align=center;verticalAlign=middle;whiteSpace=wrap;rounded=0;" vertex="1" parent="1">
          <mxGeometry x="130" y="351" width="60" height="30" as="geometry" />
        </mxCell>
        <mxCell id="GYXTQcO4I69pth3NpqbF-113" value="x.L19" style="text;html=1;align=center;verticalAlign=middle;whiteSpace=wrap;rounded=0;" vertex="1" parent="1">
          <mxGeometry x="130" y="392" width="60" height="30" as="geometry" />
        </mxCell>
        <mxCell id="GYXTQcO4I69pth3NpqbF-145" style="edgeStyle=orthogonalEdgeStyle;rounded=0;orthogonalLoop=1;jettySize=auto;html=1;entryX=0.5;entryY=1;entryDx=0;entryDy=0;" edge="1" parent="1" source="GYXTQcO4I69pth3NpqbF-114" target="GYXTQcO4I69pth3NpqbF-144">
          <mxGeometry relative="1" as="geometry" />
        </mxCell>
        <mxCell id="GYXTQcO4I69pth3NpqbF-114" value="+" style="ellipse;whiteSpace=wrap;html=1;aspect=fixed;" vertex="1" parent="1">
          <mxGeometry x="220" y="376" width="20" height="20" as="geometry" />
        </mxCell>
        <mxCell id="GYXTQcO4I69pth3NpqbF-115" value="" style="endArrow=none;html=1;rounded=0;" edge="1" parent="1">
          <mxGeometry width="50" height="50" relative="1" as="geometry">
            <mxPoint x="180" y="406" as="sourcePoint" />
            <mxPoint x="230" y="406" as="targetPoint" />
          </mxGeometry>
        </mxCell>
        <mxCell id="GYXTQcO4I69pth3NpqbF-116" value="" style="endArrow=none;html=1;rounded=0;" edge="1" parent="1">
          <mxGeometry width="50" height="50" relative="1" as="geometry">
            <mxPoint x="180" y="366" as="sourcePoint" />
            <mxPoint x="230" y="366.2" as="targetPoint" />
          </mxGeometry>
        </mxCell>
        <mxCell id="GYXTQcO4I69pth3NpqbF-117" value="" style="endArrow=classic;html=1;rounded=0;horizontal=1;fontSize=5;fontFamily=Georgia;endSize=2;entryX=0.5;entryY=0;entryDx=0;entryDy=0;" edge="1" parent="1" target="GYXTQcO4I69pth3NpqbF-114">
          <mxGeometry width="50" height="50" relative="1" as="geometry">
            <mxPoint x="230" y="366" as="sourcePoint" />
            <mxPoint x="229.9" y="369" as="targetPoint" />
          </mxGeometry>
        </mxCell>
        <mxCell id="GYXTQcO4I69pth3NpqbF-118" value="" style="endArrow=classic;html=1;rounded=0;entryX=0.5;entryY=1;entryDx=0;entryDy=0;endSize=2;" edge="1" parent="1" target="GYXTQcO4I69pth3NpqbF-114">
          <mxGeometry width="50" height="50" relative="1" as="geometry">
            <mxPoint x="230" y="406" as="sourcePoint" />
            <mxPoint x="290" y="396" as="targetPoint" />
          </mxGeometry>
        </mxCell>
        <mxCell id="GYXTQcO4I69pth3NpqbF-119" value="x.L20" style="text;html=1;align=center;verticalAlign=middle;whiteSpace=wrap;rounded=0;" vertex="1" parent="1">
          <mxGeometry x="130" y="422" width="60" height="30" as="geometry" />
        </mxCell>
        <mxCell id="GYXTQcO4I69pth3NpqbF-120" value="x.L21" style="text;html=1;align=center;verticalAlign=middle;whiteSpace=wrap;rounded=0;" vertex="1" parent="1">
          <mxGeometry x="130" y="463" width="60" height="30" as="geometry" />
        </mxCell>
        <mxCell id="GYXTQcO4I69pth3NpqbF-148" style="edgeStyle=orthogonalEdgeStyle;rounded=0;orthogonalLoop=1;jettySize=auto;html=1;entryX=0.5;entryY=0;entryDx=0;entryDy=0;" edge="1" parent="1" source="GYXTQcO4I69pth3NpqbF-121" target="GYXTQcO4I69pth3NpqbF-147">
          <mxGeometry relative="1" as="geometry" />
        </mxCell>
        <mxCell id="GYXTQcO4I69pth3NpqbF-121" value="+" style="ellipse;whiteSpace=wrap;html=1;aspect=fixed;" vertex="1" parent="1">
          <mxGeometry x="220" y="447" width="20" height="20" as="geometry" />
        </mxCell>
        <mxCell id="GYXTQcO4I69pth3NpqbF-122" value="" style="endArrow=none;html=1;rounded=0;" edge="1" parent="1">
          <mxGeometry width="50" height="50" relative="1" as="geometry">
            <mxPoint x="180" y="477" as="sourcePoint" />
            <mxPoint x="230" y="477" as="targetPoint" />
          </mxGeometry>
        </mxCell>
        <mxCell id="GYXTQcO4I69pth3NpqbF-123" value="" style="endArrow=none;html=1;rounded=0;" edge="1" parent="1">
          <mxGeometry width="50" height="50" relative="1" as="geometry">
            <mxPoint x="180" y="437" as="sourcePoint" />
            <mxPoint x="230" y="437.2" as="targetPoint" />
          </mxGeometry>
        </mxCell>
        <mxCell id="GYXTQcO4I69pth3NpqbF-124" value="" style="endArrow=classic;html=1;rounded=0;horizontal=1;fontSize=5;fontFamily=Georgia;endSize=2;entryX=0.5;entryY=0;entryDx=0;entryDy=0;" edge="1" parent="1" target="GYXTQcO4I69pth3NpqbF-121">
          <mxGeometry width="50" height="50" relative="1" as="geometry">
            <mxPoint x="230" y="437" as="sourcePoint" />
            <mxPoint x="229.9" y="440" as="targetPoint" />
          </mxGeometry>
        </mxCell>
        <mxCell id="GYXTQcO4I69pth3NpqbF-125" value="" style="endArrow=classic;html=1;rounded=0;entryX=0.5;entryY=1;entryDx=0;entryDy=0;endSize=2;" edge="1" parent="1" target="GYXTQcO4I69pth3NpqbF-121">
          <mxGeometry width="50" height="50" relative="1" as="geometry">
            <mxPoint x="230" y="477" as="sourcePoint" />
            <mxPoint x="290" y="467" as="targetPoint" />
          </mxGeometry>
        </mxCell>
        <mxCell id="GYXTQcO4I69pth3NpqbF-126" value="x.L24" style="text;html=1;align=center;verticalAlign=middle;whiteSpace=wrap;rounded=0;" vertex="1" parent="1">
          <mxGeometry x="130" y="493" width="60" height="30" as="geometry" />
        </mxCell>
        <mxCell id="GYXTQcO4I69pth3NpqbF-127" value="x.L25" style="text;html=1;align=center;verticalAlign=middle;whiteSpace=wrap;rounded=0;" vertex="1" parent="1">
          <mxGeometry x="130" y="534" width="60" height="30" as="geometry" />
        </mxCell>
        <mxCell id="GYXTQcO4I69pth3NpqbF-149" style="edgeStyle=orthogonalEdgeStyle;rounded=0;orthogonalLoop=1;jettySize=auto;html=1;entryX=0.5;entryY=1;entryDx=0;entryDy=0;" edge="1" parent="1" source="GYXTQcO4I69pth3NpqbF-128" target="GYXTQcO4I69pth3NpqbF-147">
          <mxGeometry relative="1" as="geometry" />
        </mxCell>
        <mxCell id="GYXTQcO4I69pth3NpqbF-128" value="+" style="ellipse;whiteSpace=wrap;html=1;aspect=fixed;" vertex="1" parent="1">
          <mxGeometry x="220" y="518" width="20" height="20" as="geometry" />
        </mxCell>
        <mxCell id="GYXTQcO4I69pth3NpqbF-129" value="" style="endArrow=none;html=1;rounded=0;" edge="1" parent="1">
          <mxGeometry width="50" height="50" relative="1" as="geometry">
            <mxPoint x="180" y="548" as="sourcePoint" />
            <mxPoint x="230" y="548" as="targetPoint" />
          </mxGeometry>
        </mxCell>
        <mxCell id="GYXTQcO4I69pth3NpqbF-130" value="" style="endArrow=none;html=1;rounded=0;" edge="1" parent="1">
          <mxGeometry width="50" height="50" relative="1" as="geometry">
            <mxPoint x="180" y="508" as="sourcePoint" />
            <mxPoint x="230" y="508.2" as="targetPoint" />
          </mxGeometry>
        </mxCell>
        <mxCell id="GYXTQcO4I69pth3NpqbF-131" value="" style="endArrow=classic;html=1;rounded=0;horizontal=1;fontSize=5;fontFamily=Georgia;endSize=2;entryX=0.5;entryY=0;entryDx=0;entryDy=0;" edge="1" parent="1" target="GYXTQcO4I69pth3NpqbF-128">
          <mxGeometry width="50" height="50" relative="1" as="geometry">
            <mxPoint x="230" y="508" as="sourcePoint" />
            <mxPoint x="229.9" y="511" as="targetPoint" />
          </mxGeometry>
        </mxCell>
        <mxCell id="GYXTQcO4I69pth3NpqbF-132" value="" style="endArrow=classic;html=1;rounded=0;entryX=0.5;entryY=1;entryDx=0;entryDy=0;endSize=2;" edge="1" parent="1" target="GYXTQcO4I69pth3NpqbF-128">
          <mxGeometry width="50" height="50" relative="1" as="geometry">
            <mxPoint x="230" y="548" as="sourcePoint" />
            <mxPoint x="290" y="538" as="targetPoint" />
          </mxGeometry>
        </mxCell>
        <mxCell id="GYXTQcO4I69pth3NpqbF-133" value="x.L27" style="text;html=1;align=center;verticalAlign=middle;whiteSpace=wrap;rounded=0;" vertex="1" parent="1">
          <mxGeometry x="130" y="564" width="60" height="30" as="geometry" />
        </mxCell>
        <mxCell id="GYXTQcO4I69pth3NpqbF-134" value="x.L28" style="text;html=1;align=center;verticalAlign=middle;whiteSpace=wrap;rounded=0;" vertex="1" parent="1">
          <mxGeometry x="130" y="605" width="60" height="30" as="geometry" />
        </mxCell>
        <mxCell id="GYXTQcO4I69pth3NpqbF-152" style="edgeStyle=orthogonalEdgeStyle;rounded=0;orthogonalLoop=1;jettySize=auto;html=1;entryX=0.5;entryY=0;entryDx=0;entryDy=0;" edge="1" parent="1" source="GYXTQcO4I69pth3NpqbF-135" target="GYXTQcO4I69pth3NpqbF-150">
          <mxGeometry relative="1" as="geometry" />
        </mxCell>
        <mxCell id="GYXTQcO4I69pth3NpqbF-135" value="+" style="ellipse;whiteSpace=wrap;html=1;aspect=fixed;" vertex="1" parent="1">
          <mxGeometry x="220" y="589" width="20" height="20" as="geometry" />
        </mxCell>
        <mxCell id="GYXTQcO4I69pth3NpqbF-136" value="" style="endArrow=none;html=1;rounded=0;" edge="1" parent="1">
          <mxGeometry width="50" height="50" relative="1" as="geometry">
            <mxPoint x="180" y="619" as="sourcePoint" />
            <mxPoint x="230" y="619" as="targetPoint" />
          </mxGeometry>
        </mxCell>
        <mxCell id="GYXTQcO4I69pth3NpqbF-137" value="" style="endArrow=none;html=1;rounded=0;" edge="1" parent="1">
          <mxGeometry width="50" height="50" relative="1" as="geometry">
            <mxPoint x="180" y="579" as="sourcePoint" />
            <mxPoint x="230" y="579.2" as="targetPoint" />
          </mxGeometry>
        </mxCell>
        <mxCell id="GYXTQcO4I69pth3NpqbF-138" value="" style="endArrow=classic;html=1;rounded=0;horizontal=1;fontSize=5;fontFamily=Georgia;endSize=2;entryX=0.5;entryY=0;entryDx=0;entryDy=0;" edge="1" parent="1" target="GYXTQcO4I69pth3NpqbF-135">
          <mxGeometry width="50" height="50" relative="1" as="geometry">
            <mxPoint x="230" y="579" as="sourcePoint" />
            <mxPoint x="229.9" y="582" as="targetPoint" />
          </mxGeometry>
        </mxCell>
        <mxCell id="GYXTQcO4I69pth3NpqbF-139" value="" style="endArrow=classic;html=1;rounded=0;entryX=0.5;entryY=1;entryDx=0;entryDy=0;endSize=2;" edge="1" parent="1" target="GYXTQcO4I69pth3NpqbF-135">
          <mxGeometry width="50" height="50" relative="1" as="geometry">
            <mxPoint x="230" y="619" as="sourcePoint" />
            <mxPoint x="290" y="609" as="targetPoint" />
          </mxGeometry>
        </mxCell>
        <mxCell id="GYXTQcO4I69pth3NpqbF-157" style="edgeStyle=orthogonalEdgeStyle;rounded=0;orthogonalLoop=1;jettySize=auto;html=1;entryX=0.5;entryY=0;entryDx=0;entryDy=0;" edge="1" parent="1" source="GYXTQcO4I69pth3NpqbF-141" target="GYXTQcO4I69pth3NpqbF-156">
          <mxGeometry relative="1" as="geometry" />
        </mxCell>
        <mxCell id="GYXTQcO4I69pth3NpqbF-141" value="+" style="ellipse;whiteSpace=wrap;html=1;aspect=fixed;" vertex="1" parent="1">
          <mxGeometry x="282" y="194" width="20" height="20" as="geometry" />
        </mxCell>
        <mxCell id="GYXTQcO4I69pth3NpqbF-158" style="edgeStyle=orthogonalEdgeStyle;rounded=0;orthogonalLoop=1;jettySize=auto;html=1;entryX=0.5;entryY=1;entryDx=0;entryDy=0;" edge="1" parent="1" source="GYXTQcO4I69pth3NpqbF-144" target="GYXTQcO4I69pth3NpqbF-156">
          <mxGeometry relative="1" as="geometry" />
        </mxCell>
        <mxCell id="GYXTQcO4I69pth3NpqbF-144" value="+" style="ellipse;whiteSpace=wrap;html=1;aspect=fixed;" vertex="1" parent="1">
          <mxGeometry x="282" y="340" width="20" height="20" as="geometry" />
        </mxCell>
        <mxCell id="GYXTQcO4I69pth3NpqbF-161" style="edgeStyle=orthogonalEdgeStyle;rounded=0;orthogonalLoop=1;jettySize=auto;html=1;entryX=0.5;entryY=0;entryDx=0;entryDy=0;" edge="1" parent="1" source="GYXTQcO4I69pth3NpqbF-147" target="GYXTQcO4I69pth3NpqbF-159">
          <mxGeometry relative="1" as="geometry" />
        </mxCell>
        <mxCell id="GYXTQcO4I69pth3NpqbF-147" value="+" style="ellipse;whiteSpace=wrap;html=1;aspect=fixed;" vertex="1" parent="1">
          <mxGeometry x="282" y="480" width="20" height="20" as="geometry" />
        </mxCell>
        <mxCell id="GYXTQcO4I69pth3NpqbF-160" style="edgeStyle=orthogonalEdgeStyle;rounded=0;orthogonalLoop=1;jettySize=auto;html=1;entryX=0.5;entryY=1;entryDx=0;entryDy=0;" edge="1" parent="1" source="GYXTQcO4I69pth3NpqbF-150" target="GYXTQcO4I69pth3NpqbF-159">
          <mxGeometry relative="1" as="geometry" />
        </mxCell>
        <mxCell id="GYXTQcO4I69pth3NpqbF-150" value="+" style="ellipse;whiteSpace=wrap;html=1;aspect=fixed;" vertex="1" parent="1">
          <mxGeometry x="282" y="620" width="20" height="20" as="geometry" />
        </mxCell>
        <mxCell id="GYXTQcO4I69pth3NpqbF-151" value="x.L30" style="text;html=1;align=center;verticalAlign=middle;whiteSpace=wrap;rounded=0;" vertex="1" parent="1">
          <mxGeometry x="130" y="650" width="60" height="30" as="geometry" />
        </mxCell>
        <mxCell id="GYXTQcO4I69pth3NpqbF-153" value="" style="endArrow=none;html=1;rounded=0;" edge="1" parent="1">
          <mxGeometry width="50" height="50" relative="1" as="geometry">
            <mxPoint x="182" y="664" as="sourcePoint" />
            <mxPoint x="292" y="664" as="targetPoint" />
          </mxGeometry>
        </mxCell>
        <mxCell id="GYXTQcO4I69pth3NpqbF-154" value="" style="endArrow=classic;html=1;rounded=0;entryX=0.5;entryY=1;entryDx=0;entryDy=0;" edge="1" parent="1" target="GYXTQcO4I69pth3NpqbF-150">
          <mxGeometry width="50" height="50" relative="1" as="geometry">
            <mxPoint x="292" y="660" as="sourcePoint" />
            <mxPoint x="330" y="680" as="targetPoint" />
          </mxGeometry>
        </mxCell>
        <mxCell id="GYXTQcO4I69pth3NpqbF-155" value="" style="endArrow=none;html=1;rounded=0;" edge="1" parent="1">
          <mxGeometry width="50" height="50" relative="1" as="geometry">
            <mxPoint x="292" y="664" as="sourcePoint" />
            <mxPoint x="292" y="654" as="targetPoint" />
          </mxGeometry>
        </mxCell>
        <mxCell id="GYXTQcO4I69pth3NpqbF-164" style="edgeStyle=orthogonalEdgeStyle;rounded=0;orthogonalLoop=1;jettySize=auto;html=1;entryX=0.5;entryY=0;entryDx=0;entryDy=0;" edge="1" parent="1" source="GYXTQcO4I69pth3NpqbF-156" target="GYXTQcO4I69pth3NpqbF-162">
          <mxGeometry relative="1" as="geometry" />
        </mxCell>
        <mxCell id="GYXTQcO4I69pth3NpqbF-156" value="+" style="ellipse;whiteSpace=wrap;html=1;aspect=fixed;" vertex="1" parent="1">
          <mxGeometry x="330" y="260" width="20" height="20" as="geometry" />
        </mxCell>
        <mxCell id="GYXTQcO4I69pth3NpqbF-163" style="edgeStyle=orthogonalEdgeStyle;rounded=0;orthogonalLoop=1;jettySize=auto;html=1;entryX=0.5;entryY=1;entryDx=0;entryDy=0;" edge="1" parent="1" source="GYXTQcO4I69pth3NpqbF-159" target="GYXTQcO4I69pth3NpqbF-162">
          <mxGeometry relative="1" as="geometry" />
        </mxCell>
        <mxCell id="GYXTQcO4I69pth3NpqbF-159" value="+" style="ellipse;whiteSpace=wrap;html=1;aspect=fixed;" vertex="1" parent="1">
          <mxGeometry x="330" y="550" width="20" height="20" as="geometry" />
        </mxCell>
        <mxCell id="GYXTQcO4I69pth3NpqbF-166" style="edgeStyle=orthogonalEdgeStyle;rounded=0;orthogonalLoop=1;jettySize=auto;html=1;entryX=0;entryY=0.5;entryDx=0;entryDy=0;" edge="1" parent="1" source="GYXTQcO4I69pth3NpqbF-162" target="GYXTQcO4I69pth3NpqbF-165">
          <mxGeometry relative="1" as="geometry" />
        </mxCell>
        <mxCell id="GYXTQcO4I69pth3NpqbF-162" value="+" style="ellipse;whiteSpace=wrap;html=1;aspect=fixed;" vertex="1" parent="1">
          <mxGeometry x="380" y="427" width="20" height="20" as="geometry" />
        </mxCell>
        <mxCell id="GYXTQcO4I69pth3NpqbF-165" value="ст" style="rounded=0;whiteSpace=wrap;html=1;" vertex="1" parent="1">
          <mxGeometry x="420" y="430.5" width="30" height="13" as="geometry" />
        </mxCell>
        <mxCell id="GYXTQcO4I69pth3NpqbF-170" value="" style="endArrow=classic;html=1;rounded=0;" edge="1" parent="1">
          <mxGeometry width="50" height="50" relative="1" as="geometry">
            <mxPoint x="450" y="436.94" as="sourcePoint" />
            <mxPoint x="480" y="437" as="targetPoint" />
          </mxGeometry>
        </mxCell>
        <mxCell id="GYXTQcO4I69pth3NpqbF-171" value="" style="endArrow=none;html=1;rounded=0;" edge="1" parent="1">
          <mxGeometry width="50" height="50" relative="1" as="geometry">
            <mxPoint x="452" y="448" as="sourcePoint" />
            <mxPoint x="472" y="426" as="targetPoint" />
          </mxGeometry>
        </mxCell>
        <mxCell id="GYXTQcO4I69pth3NpqbF-172" value="&lt;font style=&quot;font-size: 6px;&quot;&gt;32&lt;/font&gt;" style="text;html=1;align=center;verticalAlign=middle;whiteSpace=wrap;rounded=0;" vertex="1" parent="1">
          <mxGeometry x="446" y="425" width="30" height="8" as="geometry" />
        </mxCell>
        <mxCell id="GYXTQcO4I69pth3NpqbF-173" value="Y" style="text;html=1;align=center;verticalAlign=middle;whiteSpace=wrap;rounded=0;" vertex="1" parent="1">
          <mxGeometry x="460" y="423" width="60" height="30" as="geometry" />
        </mxCell>
      </root>
    </mxGraphModel>
  </diagram>
</mxfile>
